<?xml version="1.0" encoding="UTF-8" standalone="no"?>
<svg xmlns="http://www.w3.org/2000/svg" viewBox="0 0 1600 1100" width="1600" height="1100" font-family="Menlo, 'Courier New', monospace">

<rect width="1600" height="1100" fill="#0a2540"/>

<rect x="40" y="40" width="1520" height="1020" fill="none" stroke="#4ec3e0" stroke-width="2"/>
<rect x="55" y="55" width="1490" height="990" fill="none" stroke="#4ec3e0" stroke-width="0.5"/>

<text x="80" y="105" fill="#d4e9f0" font-size="40" font-weight="bold" letter-spacing="2">VISIONBLOX</text>
<text x="80" y="140" fill="#4ec3e0" font-size="18" letter-spacing="6">CADUCEUS  ·  DEPLOYMENT TOPOLOGY  ·  IPN END-TO-END</text>
<text x="80" y="165" fill="#87cefa" font-size="12" letter-spacing="1">METHODOLOGY: ZCS-6 (Phase 4 complete)  ·  COMPANION TO DWG CADUCEUS-001  ·  PHRONESIS-side terminator + EPHEMERIS-side peer</text>

<text x="1520" y="100" fill="#d4e9f0" font-size="14" text-anchor="end">DWG CADUCEUS-002</text>
<text x="1520" y="120" fill="#87cefa" font-size="11" text-anchor="end">SHEET 1 OF 1 REV A</text>
<text x="1520" y="138" fill="#87cefa" font-size="11" text-anchor="end">SCALE = NTS (SKETCH)</text>
<text x="1520" y="160" fill="#f4a460" font-size="10" text-anchor="end">manifest 0fe3b32db5522db6...</text>

<line x1="80" y1="185" x2="1520" y2="185" stroke="#4ec3e0" stroke-width="0.5"/>

<text x="80" y="215" fill="#d4e9f0" font-size="14" font-weight="bold" letter-spacing="2">VIEW A — END-TO-END INTERPLANETARY LINK</text>
<text x="80" y="232" fill="#87cefa" font-size="10">ground ops → DSN → cislunar relay → Mars relay → Mars surface (PHRONESIS + EPHEMERIS pair)  ·  store-and-forward via BP7 custody transfer</text>

<circle cx="160" cy="380" r="60" fill="none" stroke="#4ec3e0" stroke-width="1"/>
<circle cx="160" cy="380" r="55" fill="none" stroke="#4ec3e0" stroke-width="0.3" stroke-dasharray="2,2"/>
<text x="160" y="385" fill="#d4e9f0" font-size="13" text-anchor="middle" font-weight="bold">EARTH</text>
<text x="160" y="460" fill="#87cefa" font-size="10" text-anchor="middle">ground ops + DSN</text>

<rect x="115" y="305" width="22" height="35" fill="none" stroke="#4ec3e0" stroke-width="0.8"/>
<line x1="126" y1="305" x2="126" y2="295" stroke="#4ec3e0" stroke-width="0.8"/>
<circle cx="126" cy="293" r="6" fill="none" stroke="#4ec3e0" stroke-width="0.8"/>
<text x="100" y="350" fill="#87cefa" font-size="9" text-anchor="middle">Houston</text>
<text x="100" y="361" fill="#87cefa" font-size="9" text-anchor="middle">JPL · GSFC</text>

<rect x="180" y="305" width="35" height="35" fill="none" stroke="#4ec3e0" stroke-width="0.8"/>
<line x1="197" y1="305" x2="197" y2="280" stroke="#4ec3e0" stroke-width="0.8"/>
<line x1="180" y1="280" x2="215" y2="280" stroke="#4ec3e0" stroke-width="0.8"/>
<line x1="180" y1="280" x2="190" y2="270" stroke="#4ec3e0" stroke-width="0.8"/>
<line x1="215" y1="280" x2="205" y2="270" stroke="#4ec3e0" stroke-width="0.8"/>
<text x="234" y="320" fill="#87cefa" font-size="9">DSN</text>
<text x="234" y="332" fill="#87cefa" font-size="9">Goldstone</text>
<text x="234" y="344" fill="#87cefa" font-size="9">Madrid</text>
<text x="234" y="356" fill="#87cefa" font-size="9">Canberra</text>

<line x1="225" y1="380" x2="370" y2="380" stroke="#4ec3e0" stroke-width="0.5" stroke-dasharray="6,3"/>
<text x="298" y="372" fill="#f4a460" font-size="9" text-anchor="middle">≈ 1.25 s (Moon)</text>
<text x="298" y="395" fill="#87cefa" font-size="9" text-anchor="middle">S-band / UHF</text>

<circle cx="420" cy="380" r="14" fill="none" stroke="#4ec3e0" stroke-width="1"/>
<text x="420" y="385" fill="#d4e9f0" font-size="9" text-anchor="middle">MOON</text>
<text x="420" y="416" fill="#87cefa" font-size="9" text-anchor="middle">cislunar relay</text>
<text x="420" y="428" fill="#87cefa" font-size="9" text-anchor="middle">(LunaNet)</text>

<polygon points="395,355 398,348 401,355 398,362" fill="#4ec3e0" stroke="#4ec3e0" stroke-width="0.5"/>
<polygon points="438,360 442,353 446,360 442,367" fill="#4ec3e0" stroke="#4ec3e0" stroke-width="0.5"/>
<polygon points="430,400 434,395 438,400 434,405" fill="#4ec3e0" stroke="#4ec3e0" stroke-width="0.5"/>

<line x1="436" y1="380" x2="700" y2="380" stroke="#4ec3e0" stroke-width="0.5" stroke-dasharray="6,3"/>
<text x="568" y="372" fill="#f4a460" font-size="9" text-anchor="middle">≈ 3–22 min (Mars)</text>
<text x="568" y="395" fill="#87cefa" font-size="9" text-anchor="middle">X-band / optical</text>

<circle cx="750" cy="380" r="8" fill="none" stroke="#4ec3e0" stroke-width="1"/>
<text x="750" y="412" fill="#87cefa" font-size="9" text-anchor="middle">Sun-Earth L1</text>
<text x="750" y="424" fill="#87cefa" font-size="9" text-anchor="middle">relay (optional)</text>

<line x1="758" y1="380" x2="980" y2="380" stroke="#4ec3e0" stroke-width="0.5" stroke-dasharray="6,3"/>
<text x="869" y="372" fill="#f4a460" font-size="9" text-anchor="middle">long-distance ISL</text>
<text x="869" y="395" fill="#87cefa" font-size="9" text-anchor="middle">optical preferred</text>

<polygon points="1020,355 1024,348 1028,355 1024,362" fill="#4ec3e0" stroke="#4ec3e0" stroke-width="0.5"/>
<polygon points="1060,360 1064,353 1068,360 1064,367" fill="#4ec3e0" stroke="#4ec3e0" stroke-width="0.5"/>
<polygon points="1040,408 1044,403 1048,408 1044,413" fill="#4ec3e0" stroke="#4ec3e0" stroke-width="0.5"/>
<text x="1040" y="345" fill="#87cefa" font-size="9" text-anchor="middle">Mars Relay</text>
<text x="1040" y="430" fill="#87cefa" font-size="9" text-anchor="middle">(MAVEN-class)</text>

<line x1="1080" y1="380" x2="1100" y2="380" stroke="#4ec3e0" stroke-width="0.5" stroke-dasharray="6,3"/>
<text x="1090" y="372" fill="#f4a460" font-size="9" text-anchor="middle">UHF</text>

<circle cx="1130" cy="380" r="34" fill="none" stroke="#4ec3e0" stroke-width="1"/>
<circle cx="1130" cy="380" r="30" fill="none" stroke="#4ec3e0" stroke-width="0.3" stroke-dasharray="2,2"/>
<text x="1130" y="385" fill="#d4e9f0" font-size="11" text-anchor="middle" font-weight="bold">MARS</text>
<text x="1130" y="430" fill="#87cefa" font-size="9" text-anchor="middle">Jezero surface</text>
<text x="1130" y="442" fill="#f4a460" font-size="9" text-anchor="middle">PHRONESIS + EPHEMERIS</text>
<text x="1130" y="454" fill="#87cefa" font-size="8" text-anchor="middle">see View B detail</text>

<text x="80" y="510" fill="#d4e9f0" font-size="14" font-weight="bold" letter-spacing="2">VIEW B — TWO-TIER PEER DETAIL (Mars surface)</text>
<text x="80" y="527" fill="#87cefa" font-size="10">PHRONESIS terminator (full HF stack) ↔ EPHEMERIS peer (verify + display)</text>

<rect x="80" y="545" width="280" height="320" fill="none" stroke="#f4a460" stroke-width="1"/>
<text x="220" y="567" fill="#f4a460" font-size="12" text-anchor="middle" font-weight="bold">PHRONESIS-M</text>
<text x="220" y="582" fill="#87cefa" font-size="9" text-anchor="middle">spacesuit terminator  ·  Jetson Orin NX</text>

<line x1="100" y1="595" x2="340" y2="595" stroke="#4ec3e0" stroke-width="0.3"/>

<rect x="100" y="608" width="220" height="22" fill="none" stroke="#4ec3e0" stroke-width="0.5"/>
<text x="210" y="623" fill="#d4e9f0" font-size="10" text-anchor="middle">HF-22  frame-context interlock</text>

<rect x="100" y="635" width="220" height="22" fill="none" stroke="#4ec3e0" stroke-width="0.5"/>
<text x="210" y="650" fill="#d4e9f0" font-size="10" text-anchor="middle">HF-21  nonce-set partition</text>

<rect x="100" y="662" width="220" height="22" fill="none" stroke="#4ec3e0" stroke-width="0.5"/>
<text x="210" y="677" fill="#d4e9f0" font-size="10" text-anchor="middle">HF-17  Civium gate</text>

<rect x="100" y="689" width="220" height="22" fill="none" stroke="#4ec3e0" stroke-width="0.5"/>
<text x="210" y="704" fill="#d4e9f0" font-size="10" text-anchor="middle">HF-16  outbound attest</text>

<rect x="100" y="716" width="220" height="22" fill="none" stroke="#4ec3e0" stroke-width="0.5"/>
<text x="210" y="731" fill="#d4e9f0" font-size="10" text-anchor="middle">HF-19  URN  ·  HF-18  ACI</text>

<rect x="100" y="743" width="220" height="22" fill="none" stroke="#4ec3e0" stroke-width="0.5"/>
<text x="210" y="758" fill="#d4e9f0" font-size="10" text-anchor="middle">HF-20  Mercury WCET</text>

<rect x="100" y="770" width="220" height="22" fill="none" stroke="#4ec3e0" stroke-width="0.3" stroke-dasharray="4,2"/>
<text x="210" y="785" fill="#87cefa" font-size="10" text-anchor="middle">BP7 + BPSec  ·  ION-DTN ref</text>

<rect x="100" y="797" width="220" height="22" fill="none" stroke="#4ec3e0" stroke-width="0.3" stroke-dasharray="4,2"/>
<text x="210" y="812" fill="#87cefa" font-size="10" text-anchor="middle">Civium · Aletheia · Mercury</text>

<rect x="100" y="824" width="220" height="22" fill="none" stroke="#4ec3e0" stroke-width="0.5"/>
<text x="210" y="839" fill="#d4e9f0" font-size="10" text-anchor="middle">HF-11 S-band + UHF (existing)</text>

<text x="220" y="857" fill="#87cefa" font-size="9" text-anchor="middle">mass 2 kg compute · ≤200 W env · 4.0 kg comm cap</text>

<line x1="360" y1="700" x2="430" y2="700" stroke="#f4a460" stroke-width="1" stroke-dasharray="4,2"/>
<line x1="360" y1="720" x2="430" y2="720" stroke="#f4a460" stroke-width="1" stroke-dasharray="4,2"/>
<text x="395" y="694" fill="#f4a460" font-size="9" text-anchor="middle">UWB</text>
<text x="395" y="735" fill="#f4a460" font-size="9" text-anchor="middle">BLE</text>
<text x="395" y="748" fill="#87cefa" font-size="8" text-anchor="middle">pairing</text>

<rect x="430" y="610" width="200" height="200" fill="none" stroke="#f4a460" stroke-width="1"/>
<text x="530" y="632" fill="#f4a460" font-size="12" text-anchor="middle" font-weight="bold">EPHEMERIS-1</text>
<text x="530" y="647" fill="#87cefa" font-size="9" text-anchor="middle">wrist peer  ·  Cortex-M class</text>

<line x1="450" y1="660" x2="610" y2="660" stroke="#4ec3e0" stroke-width="0.3"/>

<rect x="450" y="673" width="160" height="22" fill="none" stroke="#4ec3e0" stroke-width="0.5"/>
<text x="530" y="688" fill="#d4e9f0" font-size="10" text-anchor="middle">F3  independent verify</text>

<rect x="450" y="700" width="160" height="22" fill="none" stroke="#4ec3e0" stroke-width="0.5"/>
<text x="530" y="715" fill="#d4e9f0" font-size="10" text-anchor="middle">URN parse (cached)</text>

<rect x="450" y="727" width="160" height="22" fill="none" stroke="#4ec3e0" stroke-width="0.5"/>
<text x="530" y="742" fill="#d4e9f0" font-size="10" text-anchor="middle">F4  confirm peer</text>

<rect x="450" y="754" width="160" height="22" fill="none" stroke="#4ec3e0" stroke-width="0.5"/>
<text x="530" y="769" fill="#d4e9f0" font-size="10" text-anchor="middle">display + haptic</text>

<rect x="450" y="781" width="160" height="22" fill="none" stroke="#4ec3e0" stroke-width="0.3" stroke-dasharray="4,2"/>
<text x="530" y="796" fill="#87cefa" font-size="10" text-anchor="middle">libsodium embed</text>

<text x="530" y="827" fill="#87cefa" font-size="9" text-anchor="middle">v0.2 = single-peer  ·  v0.3 = dual-peer (DFT)</text>

<text x="680" y="510" fill="#d4e9f0" font-size="14" font-weight="bold" letter-spacing="2">VIEW C — AUTHORITY PROPAGATION TIMELINE</text>
<text x="680" y="527" fill="#87cefa" font-size="10">Earth issue → Mars receive → EPHEMERIS verify → crew confirm → log</text>

<line x1="700" y1="555" x2="700" y2="870" stroke="#4ec3e0" stroke-width="1"/>
<text x="688" y="552" fill="#87cefa" font-size="9" text-anchor="end">T (TAI)</text>

<circle cx="700" cy="575" r="5" fill="#d4e9f0" stroke="#d4e9f0" stroke-width="1"/>
<text x="715" y="572" fill="#d4e9f0" font-size="11">T₀ — ground issue</text>
<text x="715" y="586" fill="#87cefa" font-size="9">Houston signs bundle  ·  Aletheia chain entry  ·  BPSec encrypt</text>

<line x1="700" y1="595" x2="700" y2="640" stroke="#f4a460" stroke-width="1" stroke-dasharray="3,2"/>
<text x="715" y="615" fill="#f4a460" font-size="10">propagation</text>
<text x="715" y="628" fill="#87cefa" font-size="9">3–22 min one-way (Mars)  ·  store-and-forward via relays</text>

<circle cx="700" cy="655" r="5" fill="#d4e9f0" stroke="#d4e9f0" stroke-width="1"/>
<text x="715" y="652" fill="#d4e9f0" font-size="11">T₁ — PHRONESIS receive</text>
<text x="715" y="666" fill="#87cefa" font-size="9">BP7 reassemble  ·  BPSec decrypt  ·  HF-19 URN parse</text>

<circle cx="700" cy="687" r="5" fill="#d4e9f0" stroke="#d4e9f0" stroke-width="1"/>
<text x="715" y="684" fill="#d4e9f0" font-size="11">T₁ + Mercury-WCET — HF-17 4-check</text>
<text x="715" y="698" fill="#87cefa" font-size="9">signature + lifetime + nonce + prev_hash  ·  atomic  ·  Civium gate</text>

<circle cx="700" cy="719" r="5" fill="#f4a460" stroke="#f4a460" stroke-width="1"/>
<text x="715" y="716" fill="#f4a460" font-size="11">T₁ + ≤100 ms — EPHEMERIS verify</text>
<text x="715" y="730" fill="#87cefa" font-size="9">independent signature check  ·  URN consistency  ·  display body+frame</text>

<circle cx="700" cy="751" r="5" fill="#f4a460" stroke="#f4a460" stroke-width="1"/>
<text x="715" y="748" fill="#f4a460" font-size="11">T₁ + crew Δ — F4 confirmation (if required)</text>
<text x="715" y="762" fill="#87cefa" font-size="9">cluster-root-cause  ·  hard rate K=6/hr  ·  audit log to chain</text>

<circle cx="700" cy="783" r="5" fill="#d4e9f0" stroke="#d4e9f0" stroke-width="1"/>
<text x="715" y="780" fill="#d4e9f0" font-size="11">T₁ + decision — action OR HF-9 fail-safe</text>
<text x="715" y="794" fill="#87cefa" font-size="9">on fail: deterministic HF-9 entry  ·  no LLM-retry path  ·  two-source exit</text>

<circle cx="700" cy="815" r="5" fill="#d4e9f0" stroke="#d4e9f0" stroke-width="1"/>
<text x="715" y="812" fill="#d4e9f0" font-size="11">T₁ + audit — chain entry committed</text>
<text x="715" y="826" fill="#87cefa" font-size="9">grant + deny + timeout all logged  ·  100% audit-trail completeness (F4)</text>

<text x="715" y="855" fill="#f4a460" font-size="9">⚠ revocation propagation lags by full RTT  ·  stale-graph defaults apply per §3.6</text>

<line x1="1180" y1="200" x2="1180" y2="870" stroke="#4ec3e0" stroke-width="0.5"/>

<text x="1200" y="220" fill="#d4e9f0" font-size="14" font-weight="bold" letter-spacing="2">SPECS</text>

<text x="1200" y="245" fill="#87cefa" font-size="10">EARTH–MOON RTT</text>
<text x="1520" y="245" fill="#d4e9f0" font-size="10" text-anchor="end">≈ 2.5 sec round-trip</text>
<text x="1200" y="262" fill="#87cefa" font-size="10">EARTH–MARS RTT</text>
<text x="1520" y="262" fill="#d4e9f0" font-size="10" text-anchor="end">6–44 min round-trip</text>
<text x="1200" y="279" fill="#87cefa" font-size="10">DEEP-SPACE RTT</text>
<text x="1520" y="279" fill="#d4e9f0" font-size="10" text-anchor="end">hours (case-dep)</text>
<text x="1200" y="296" fill="#87cefa" font-size="10">RELAY HOPS</text>
<text x="1520" y="296" fill="#d4e9f0" font-size="10" text-anchor="end">≥ 3 typical (B2)</text>
<text x="1200" y="313" fill="#87cefa" font-size="10">AUTH STREAMS</text>
<text x="1520" y="313" fill="#d4e9f0" font-size="10" text-anchor="end">≥ 12 nominal multi-ops</text>
<text x="1200" y="330" fill="#87cefa" font-size="10">CREW PER SUIT</text>
<text x="1520" y="330" fill="#d4e9f0" font-size="10" text-anchor="end">1 (v0.2 SFT)</text>
<text x="1200" y="347" fill="#87cefa" font-size="10">F4 K DEFAULT</text>
<text x="1520" y="347" fill="#d4e9f0" font-size="10" text-anchor="end">6 confirm/crew/hr</text>
<text x="1200" y="364" fill="#87cefa" font-size="10">BODY FRAMES</text>
<text x="1520" y="364" fill="#d4e9f0" font-size="10" text-anchor="end">13 declared (v1.0)</text>
<text x="1200" y="381" fill="#87cefa" font-size="10">URN CAP</text>
<text x="1520" y="381" fill="#d4e9f0" font-size="10" text-anchor="end">256 bytes NFC/ASCII</text>
<text x="1200" y="398" fill="#87cefa" font-size="10">RETENTION WIN</text>
<text x="1520" y="398" fill="#d4e9f0" font-size="10" text-anchor="end">2×RTT_max, ≥60 min</text>
<text x="1200" y="415" fill="#87cefa" font-size="10">PAIRING</text>
<text x="1520" y="415" fill="#d4e9f0" font-size="10" text-anchor="end">UWB + BLE backup</text>
<text x="1200" y="432" fill="#87cefa" font-size="10">EPHEMERIS</text>
<text x="1520" y="432" fill="#d4e9f0" font-size="10" text-anchor="end">v0.2 single-peer</text>

<line x1="1200" y1="450" x2="1520" y2="450" stroke="#4ec3e0" stroke-width="0.3"/>

<text x="1200" y="475" fill="#d4e9f0" font-size="14" font-weight="bold" letter-spacing="2">CHANNEL MAP</text>
<text x="1200" y="492" fill="#87cefa" font-size="10">segment → spectrum</text>

<text x="1200" y="515" fill="#87cefa" font-size="10">Earth ↔ Moon</text>
<text x="1520" y="515" fill="#d4e9f0" font-size="10" text-anchor="end">S-band + UHF</text>
<text x="1200" y="532" fill="#87cefa" font-size="10">Earth ↔ Mars</text>
<text x="1520" y="532" fill="#d4e9f0" font-size="10" text-anchor="end">X-band + optical ●</text>
<text x="1200" y="549" fill="#87cefa" font-size="10">L1 relay</text>
<text x="1520" y="549" fill="#d4e9f0" font-size="10" text-anchor="end">X-band ISL</text>
<text x="1200" y="566" fill="#87cefa" font-size="10">Mars relay ↓ surf</text>
<text x="1520" y="566" fill="#d4e9f0" font-size="10" text-anchor="end">UHF low-power</text>
<text x="1200" y="583" fill="#87cefa" font-size="10">PHRONESIS↔EPHEMERIS</text>
<text x="1520" y="583" fill="#d4e9f0" font-size="10" text-anchor="end">UWB 6–9 GHz</text>
<text x="1200" y="600" fill="#87cefa" font-size="10">EPHEMERIS backup</text>
<text x="1520" y="600" fill="#d4e9f0" font-size="10" text-anchor="end">BLE 2.4 GHz</text>

<text x="1200" y="623" fill="#f4a460" font-size="9">●  optical = v0.3 stretch (4 kg / 50 W cap)</text>

<line x1="1200" y1="640" x2="1520" y2="640" stroke="#4ec3e0" stroke-width="0.3"/>

<text x="1200" y="665" fill="#d4e9f0" font-size="14" font-weight="bold" letter-spacing="2">STREAM CLASS MAP</text>
<text x="1200" y="682" fill="#87cefa" font-size="10">priority lane assignments</text>

<text x="1200" y="705" fill="#87cefa" font-size="10">priority</text>
<text x="1520" y="705" fill="#f4a460" font-size="10" text-anchor="end">revocation (T7)</text>
<text x="1200" y="722" fill="#87cefa" font-size="10">priority</text>
<text x="1520" y="722" fill="#f4a460" font-size="10" text-anchor="end">registry-transition (§3.5)</text>
<text x="1200" y="739" fill="#87cefa" font-size="10">priority</text>
<text x="1520" y="739" fill="#f4a460" font-size="10" text-anchor="end">emergency-class</text>
<text x="1200" y="756" fill="#87cefa" font-size="10">standard</text>
<text x="1520" y="756" fill="#d4e9f0" font-size="10" text-anchor="end">command  ·  telemetry-acted</text>
<text x="1200" y="773" fill="#87cefa" font-size="10">standard</text>
<text x="1520" y="773" fill="#d4e9f0" font-size="10" text-anchor="end">advisory-medical / safety</text>
<text x="1200" y="790" fill="#87cefa" font-size="10">standard</text>
<text x="1520" y="790" fill="#d4e9f0" font-size="10" text-anchor="end">configuration  ·  status</text>
<text x="1200" y="807" fill="#87cefa" font-size="10">background</text>
<text x="1520" y="807" fill="#d4e9f0" font-size="10" text-anchor="end">telemetry-passive  ·  bulk</text>

<text x="1200" y="833" fill="#f4a460" font-size="9">unenumerated classes → reject (F2)</text>
<text x="1200" y="847" fill="#f4a460" font-size="9">stale graph → conservative default per §3.6</text>

<line x1="80" y1="890" x2="1140" y2="890" stroke="#4ec3e0" stroke-width="0.5"/>

<text x="80" y="920" fill="#d4e9f0" font-size="14" font-weight="bold" letter-spacing="2">NOTES</text>

<text x="80" y="942" fill="#d4e9f0" font-size="10">1.  Each link carries its own theoretical-floor constants per §3.7 of CADUCEUS-004 (SNR, BER, RTT)  ·  signed by release key  ·  loaded at boot  ·  VERIFIED for derivation procedure.</text>

<text x="80" y="960" fill="#d4e9f0" font-size="10">2.  Revocations propagate on T7 priority lane  ·  succession-implies-revocation by default  ·  stale-graph table per §3.6 with explicit precedence ordering  ·  VERIFIED in bench v1.2.1.</text>

<text x="80" y="978" fill="#d4e9f0" font-size="10">3.  Frame disambiguation per F1: every bundle carries (TAI_microseconds, vbx-body-URN)  ·  envelope [1972-01-01, 2101-01-01) TAI  ·  out-of-envelope quarantined at ingress.</text>

<text x="80" y="996" fill="#d4e9f0" font-size="10">4.  §3.5 dual-version retention window during namespace transitions  ·  default 2×RTT_max, minimum 60 min  ·  versioned URN scheme (vbx-body:v1.0: → v1.1:).</text>

<text x="80" y="1014" fill="#f4a460" font-size="10">5.  v0.2 = single-peer EPHEMERIS (SFT)  ·  v0.3 = dual-peer (one of 3 named DFT mechanisms per §0 of CADUCEUS-004)  ·  crewed-deployment requires DFT.</text>

<text x="80" y="1032" fill="#f4a460" font-size="10">6.  SKETCH ONLY — operational deployment is post-Phase 6 (CADUCEUS-007)  ·  SDA Tranche 3 GEPs are potential ground-side capture path per CADUCEUS-CAPTURE-001 §3.5.</text>

<rect x="1160" y="890" width="380" height="160" fill="none" stroke="#4ec3e0" stroke-width="0.5"/>

<text x="1180" y="915" fill="#87cefa" font-size="10">DESIGNER</text>
<text x="1180" y="932" fill="#d4e9f0" font-size="11">A. K. WOODEN, SR.</text>

<text x="1360" y="915" fill="#87cefa" font-size="10">AFFILIATION</text>
<text x="1360" y="932" fill="#d4e9f0" font-size="11">VISIONBLOX LLC</text>
<text x="1360" y="946" fill="#87cefa" font-size="9">Zuup Innovation Lab</text>

<text x="1180" y="970" fill="#87cefa" font-size="10">METHODOLOGY</text>
<text x="1180" y="987" fill="#d4e9f0" font-size="11">ZCS-6 (Phase 4)</text>

<text x="1360" y="970" fill="#87cefa" font-size="10">COMPANION</text>
<text x="1360" y="987" fill="#d4e9f0" font-size="11">DWG CADUCEUS-001</text>

<text x="1180" y="1010" fill="#87cefa" font-size="10">DWG #</text>
<text x="1180" y="1027" fill="#d4e9f0" font-size="11">CADUCEUS-002</text>
<text x="1180" y="1038" fill="#87cefa" font-size="9">SKETCH</text>

<text x="1300" y="1010" fill="#87cefa" font-size="10">DATE</text>
<text x="1300" y="1027" fill="#d4e9f0" font-size="11">2026-06-09</text>
<text x="1300" y="1038" fill="#87cefa" font-size="9">UTC</text>

<text x="1420" y="1010" fill="#87cefa" font-size="10">REV</text>
<text x="1420" y="1027" fill="#d4e9f0" font-size="11">A</text>
<text x="1420" y="1038" fill="#87cefa" font-size="9">initial sketch</text>

</svg>
