<?xml version="1.0" encoding="UTF-8" standalone="no"?>
<svg xmlns="http://www.w3.org/2000/svg" viewBox="0 0 1600 1100" width="1600" height="1100" font-family="Menlo, 'Courier New', monospace">

<rect width="1600" height="1100" fill="#0a2540"/>

<rect x="40" y="40" width="1520" height="1020" fill="none" stroke="#4ec3e0" stroke-width="2"/>
<rect x="55" y="55" width="1490" height="990" fill="none" stroke="#4ec3e0" stroke-width="0.5"/>

<text x="80" y="105" fill="#d4e9f0" font-size="40" font-weight="bold" letter-spacing="2">VISIONBLOX</text>
<text x="80" y="140" fill="#4ec3e0" font-size="18" letter-spacing="6">CADUCEUS  ·  IPN-FABRIC  ·  COMPLIANCE-GRADED BUNDLE SUBSTRATE</text>
<text x="80" y="165" fill="#87cefa" font-size="12" letter-spacing="1">METHODOLOGY: ZCS-6 (Phase 4 complete)  ·  BENCH: caduceus-bench v1.2.1  ·  SUBSTRATE: v0.2 PLAN (CADUCEUS-005)</text>

<text x="1520" y="100" fill="#d4e9f0" font-size="14" text-anchor="end">DWG CADUCEUS-001</text>
<text x="1520" y="120" fill="#87cefa" font-size="11" text-anchor="end">SHEET 1 OF 1 REV A</text>
<text x="1520" y="138" fill="#87cefa" font-size="11" text-anchor="end">SCALE = NTS (SKETCH)</text>
<text x="1520" y="160" fill="#f4a460" font-size="10" text-anchor="end">manifest 0fe3b32db5522db6...</text>

<line x1="80" y1="185" x2="1520" y2="185" stroke="#4ec3e0" stroke-width="0.5"/>

<text x="80" y="215" fill="#d4e9f0" font-size="14" font-weight="bold" letter-spacing="2">VIEW A — LAYERED STACK (PHRONESIS-side)</text>
<text x="80" y="232" fill="#87cefa" font-size="10">7 HF floors over BP7/BPSec  ·  bench-asserted floor map  ·  HF-16..HF-22 extend VBX-ISPS HF-1..HF-15</text>

<rect x="80" y="250" width="640" height="38" fill="none" stroke="#4ec3e0" stroke-width="1"/>
<text x="100" y="274" fill="#d4e9f0" font-size="13">HF-22</text>
<text x="180" y="274" fill="#d4e9f0" font-size="13">Frame-context interlock + root-cause clustering + audit log</text>
<text x="700" y="274" fill="#f4a460" font-size="11" text-anchor="end">(F4)</text>

<rect x="80" y="294" width="640" height="38" fill="none" stroke="#4ec3e0" stroke-width="1"/>
<text x="100" y="318" fill="#d4e9f0" font-size="13">HF-21</text>
<text x="180" y="318" fill="#d4e9f0" font-size="13">Nonce-seen-set per-stream partition + quota</text>
<text x="700" y="318" fill="#f4a460" font-size="11" text-anchor="end">(T4)</text>

<rect x="80" y="338" width="640" height="58" fill="none" stroke="#4ec3e0" stroke-width="1"/>
<text x="100" y="362" fill="#d4e9f0" font-size="13">HF-19</text>
<text x="180" y="362" fill="#d4e9f0" font-size="13">URN parse + Caduceus-BodyID v1.0 + dual-version window</text>
<text x="700" y="362" fill="#f4a460" font-size="11" text-anchor="end">(F1, F2)</text>
<line x1="100" y1="370" x2="700" y2="370" stroke="#4ec3e0" stroke-width="0.3" stroke-dasharray="2,2"/>
<text x="100" y="386" fill="#d4e9f0" font-size="13">HF-17</text>
<text x="180" y="386" fill="#d4e9f0" font-size="13">Inbound 4-check + Civium gate + revocation stream + defaults</text>
<text x="700" y="386" fill="#f4a460" font-size="11" text-anchor="end">(T1-T3,T6,T7)</text>

<rect x="80" y="402" width="640" height="38" fill="none" stroke="#4ec3e0" stroke-width="1"/>
<text x="100" y="426" fill="#d4e9f0" font-size="13">HF-16</text>
<text x="180" y="426" fill="#d4e9f0" font-size="13">Outbound attestation (Ed25519 over canonical tuple)</text>
<text x="700" y="426" fill="#f4a460" font-size="11" text-anchor="end">(T1)</text>

<rect x="80" y="446" width="640" height="38" fill="none" stroke="#4ec3e0" stroke-width="1"/>
<text x="100" y="470" fill="#d4e9f0" font-size="13">HF-18</text>
<text x="180" y="470" fill="#d4e9f0" font-size="13">ACI drift monitor  ·  max(empirical, theoretical) floor</text>
<text x="700" y="470" fill="#f4a460" font-size="11" text-anchor="end">(T5)</text>

<rect x="80" y="490" width="640" height="38" fill="none" stroke="#4ec3e0" stroke-width="1"/>
<text x="100" y="514" fill="#d4e9f0" font-size="13">HF-20</text>
<text x="180" y="514" fill="#d4e9f0" font-size="13">Mercury-bounded WCET enforcement (5-cycle deterministic)</text>
<text x="700" y="514" fill="#f4a460" font-size="11" text-anchor="end">(all WCET)</text>

<rect x="80" y="540" width="640" height="46" fill="none" stroke="#4ec3e0" stroke-width="1" stroke-dasharray="6,3"/>
<text x="100" y="562" fill="#87cefa" font-size="12">BP7 (RFC 9171)  +  BPSec (RFC 9172, 9173)  +  HKDF (RFC 5869)</text>
<text x="100" y="578" fill="#87cefa" font-size="11">Reference: ION-DTN (NASA, open source)</text>

<rect x="80" y="592" width="640" height="46" fill="none" stroke="#4ec3e0" stroke-width="1" stroke-dasharray="6,3"/>
<text x="100" y="614" fill="#87cefa" font-size="12">Civium · MVCI · Aletheia DAC · Mercury · Bus ISO · Secure Element</text>
<text x="100" y="630" fill="#87cefa" font-size="11">Existing Visionblox/Zuup substrate (VBX-ISPS HF-1..HF-15)</text>

<rect x="80" y="644" width="640" height="34" fill="none" stroke="#4ec3e0" stroke-width="1"/>
<text x="100" y="666" fill="#d4e9f0" font-size="12">Jetson Orin NX  ·  shielded enclosure  ·  16 GB  ·  ≤200 W</text>

<text x="80" y="710" fill="#d4e9f0" font-size="14" font-weight="bold" letter-spacing="2">VIEW C — BUNDLE FLOW PATH (cross-section, inbound)</text>
<text x="80" y="727" fill="#87cefa" font-size="10">RX physical → BP7 reassemble → BPSec decrypt → F1 → HF-19 URN → HF-21 nonce → HF-17 4-check → HF-22 interlock → app</text>

<rect x="80" y="745" width="84" height="32" fill="none" stroke="#4ec3e0" stroke-width="1"/>
<text x="122" y="765" fill="#d4e9f0" font-size="10" text-anchor="middle">RX</text>
<text x="122" y="788" fill="#87cefa" font-size="9" text-anchor="middle">physical</text>

<line x1="164" y1="761" x2="180" y2="761" stroke="#4ec3e0" stroke-width="0.5" marker-end="url(#arr)"/>

<rect x="180" y="745" width="84" height="32" fill="none" stroke="#4ec3e0" stroke-width="1"/>
<text x="222" y="765" fill="#d4e9f0" font-size="10" text-anchor="middle">BP7</text>
<text x="222" y="788" fill="#87cefa" font-size="9" text-anchor="middle">reassemble</text>

<line x1="264" y1="761" x2="280" y2="761" stroke="#4ec3e0" stroke-width="0.5" marker-end="url(#arr)"/>

<rect x="280" y="745" width="84" height="32" fill="none" stroke="#4ec3e0" stroke-width="1"/>
<text x="322" y="765" fill="#d4e9f0" font-size="10" text-anchor="middle">BPSec</text>
<text x="322" y="788" fill="#87cefa" font-size="9" text-anchor="middle">B2 decrypt</text>

<line x1="364" y1="761" x2="380" y2="761" stroke="#4ec3e0" stroke-width="0.5" marker-end="url(#arr)"/>

<rect x="380" y="745" width="84" height="32" fill="none" stroke="#4ec3e0" stroke-width="1"/>
<text x="422" y="765" fill="#d4e9f0" font-size="10" text-anchor="middle">F1</text>
<text x="422" y="788" fill="#87cefa" font-size="9" text-anchor="middle">envelope</text>

<line x1="464" y1="761" x2="480" y2="761" stroke="#4ec3e0" stroke-width="0.5" marker-end="url(#arr)"/>

<rect x="480" y="745" width="84" height="32" fill="none" stroke="#4ec3e0" stroke-width="1"/>
<text x="522" y="765" fill="#d4e9f0" font-size="10" text-anchor="middle">HF-19</text>
<text x="522" y="788" fill="#87cefa" font-size="9" text-anchor="middle">URN parse</text>

<line x1="564" y1="761" x2="580" y2="761" stroke="#4ec3e0" stroke-width="0.5" marker-end="url(#arr)"/>

<rect x="580" y="745" width="84" height="32" fill="none" stroke="#4ec3e0" stroke-width="1"/>
<text x="622" y="765" fill="#d4e9f0" font-size="10" text-anchor="middle">HF-21</text>
<text x="622" y="788" fill="#87cefa" font-size="9" text-anchor="middle">nonce</text>

<line x1="664" y1="761" x2="680" y2="761" stroke="#4ec3e0" stroke-width="0.5" marker-end="url(#arr)"/>

<rect x="80" y="800" width="84" height="32" fill="none" stroke="#4ec3e0" stroke-width="1" stroke-dasharray="4,2"/>
<text x="122" y="820" fill="#f4a460" font-size="10" text-anchor="middle">HF-17</text>
<text x="122" y="843" fill="#f4a460" font-size="9" text-anchor="middle">4-check atomic</text>

<line x1="164" y1="816" x2="180" y2="816" stroke="#4ec3e0" stroke-width="0.5" marker-end="url(#arr)"/>

<rect x="180" y="800" width="84" height="32" fill="none" stroke="#4ec3e0" stroke-width="1" stroke-dasharray="4,2"/>
<text x="222" y="820" fill="#f4a460" font-size="10" text-anchor="middle">HF-22</text>
<text x="222" y="843" fill="#f4a460" font-size="9" text-anchor="middle">interlock</text>

<line x1="264" y1="816" x2="280" y2="816" stroke="#4ec3e0" stroke-width="0.5" marker-end="url(#arr)"/>

<rect x="280" y="800" width="84" height="32" fill="none" stroke="#4ec3e0" stroke-width="1"/>
<text x="322" y="820" fill="#d4e9f0" font-size="10" text-anchor="middle">APP</text>
<text x="322" y="843" fill="#87cefa" font-size="9" text-anchor="middle">delivery</text>

<line x1="664" y1="777" x2="664" y2="800" stroke="#4ec3e0" stroke-width="0.5"/>
<line x1="664" y1="800" x2="122" y2="800" stroke="#4ec3e0" stroke-width="0.5"/>
<line x1="122" y1="800" x2="122" y2="800" stroke="#4ec3e0" stroke-width="0.5"/>

<text x="380" y="828" fill="#f4a460" font-size="9">on-fail → HF-9 (T3)  ·  no LLM-retry path  ·  two-source confirm to exit</text>

<text x="800" y="215" fill="#d4e9f0" font-size="14" font-weight="bold" letter-spacing="2">VIEW B — TWO-STRAND SYMBOLOGY</text>
<text x="800" y="232" fill="#87cefa" font-size="10">Aletheia (provenance / trust strand)  ·  Civium (authority / decision strand)  ·  central bundle stream</text>

<line x1="970" y1="260" x2="970" y2="630" stroke="#d4e9f0" stroke-width="2"/>
<text x="978" y="270" fill="#d4e9f0" font-size="10">BP7 BUNDLE</text>
<text x="978" y="282" fill="#87cefa" font-size="9">STREAM</text>

<path d="M 970,265 Q 920,290 970,315 Q 1020,340 970,365 Q 920,390 970,415 Q 1020,440 970,465 Q 920,490 970,515 Q 1020,540 970,565 Q 920,590 970,615" fill="none" stroke="#4ec3e0" stroke-width="2"/>
<text x="888" y="295" fill="#4ec3e0" font-size="11" text-anchor="end">ALETHEIA</text>
<text x="888" y="310" fill="#87cefa" font-size="9" text-anchor="end">trust / chain</text>
<text x="888" y="395" fill="#4ec3e0" font-size="11" text-anchor="end">Ed25519 sign</text>
<text x="888" y="410" fill="#87cefa" font-size="9" text-anchor="end">per bundle (T1)</text>
<text x="888" y="495" fill="#4ec3e0" font-size="11" text-anchor="end">prev_hash chain</text>
<text x="888" y="510" fill="#87cefa" font-size="9" text-anchor="end">LEDGER #0004</text>
<text x="888" y="595" fill="#4ec3e0" font-size="11" text-anchor="end">v0.3 cross-epoch</text>
<text x="888" y="610" fill="#87cefa" font-size="9" text-anchor="end">key rotation</text>

<path d="M 970,265 Q 1020,290 970,315 Q 920,340 970,365 Q 1020,390 970,415 Q 920,440 970,465 Q 1020,490 970,515 Q 920,540 970,565 Q 1020,590 970,615" fill="none" stroke="#f4a460" stroke-width="2"/>
<text x="1052" y="295" fill="#f4a460" font-size="11">CIVIUM</text>
<text x="1052" y="310" fill="#87cefa" font-size="9">authority / graph</text>
<text x="1052" y="395" fill="#f4a460" font-size="11">graph match</text>
<text x="1052" y="410" fill="#87cefa" font-size="9">+ time-bound (T2)</text>
<text x="1052" y="495" fill="#f4a460" font-size="11">priority lane</text>
<text x="1052" y="510" fill="#87cefa" font-size="9">revocation (T7)</text>
<text x="1052" y="595" fill="#f4a460" font-size="11">§3.6 defaults</text>
<text x="1052" y="610" fill="#87cefa" font-size="9">stale-graph</text>

<circle cx="970" cy="265" r="4" fill="#d4e9f0"/>
<circle cx="970" cy="315" r="4" fill="#d4e9f0"/>
<circle cx="970" cy="365" r="4" fill="#d4e9f0"/>
<circle cx="970" cy="415" r="4" fill="#d4e9f0"/>
<circle cx="970" cy="465" r="4" fill="#d4e9f0"/>
<circle cx="970" cy="515" r="4" fill="#d4e9f0"/>
<circle cx="970" cy="565" r="4" fill="#d4e9f0"/>
<circle cx="970" cy="615" r="4" fill="#d4e9f0"/>

<text x="800" y="680" fill="#d4e9f0" font-size="14" font-weight="bold" letter-spacing="2">CALLOUTS</text>

<text x="800" y="710" fill="#f4a460" font-size="12">①</text>
<text x="822" y="710" fill="#d4e9f0" font-size="11">17 normative assertions  ·  P:3  B:3  T:7  F:4</text>

<text x="800" y="730" fill="#f4a460" font-size="12">②</text>
<text x="822" y="730" fill="#d4e9f0" font-size="11">20 named attacks closed across 2 Phase-3 sweeps</text>

<text x="800" y="750" fill="#f4a460" font-size="12">③</text>
<text x="822" y="750" fill="#d4e9f0" font-size="11">2 interplanetary-specific findings (Attack 10, Attack 27)</text>

<text x="800" y="770" fill="#f4a460" font-size="12">④</text>
<text x="822" y="770" fill="#d4e9f0" font-size="11">17 Lean 4 / TLA+ proof obligations (CADUCEUS-006)</text>

<text x="800" y="790" fill="#f4a460" font-size="12">⑤</text>
<text x="822" y="790" fill="#d4e9f0" font-size="11">33 Phase-6 vertical-integration attacks queued (CADUCEUS-007)</text>

<text x="800" y="810" fill="#f4a460" font-size="12">⑥</text>
<text x="822" y="810" fill="#d4e9f0" font-size="11">caduceus-bench v1.2.1 → LEDGER #0004 (pending commit)</text>

<text x="800" y="830" fill="#f4a460" font-size="12">⑦</text>
<text x="822" y="830" fill="#d4e9f0" font-size="11">3 PPA targets pending practitioner engagement</text>

<line x1="1180" y1="200" x2="1180" y2="900" stroke="#4ec3e0" stroke-width="0.5"/>

<text x="1200" y="220" fill="#d4e9f0" font-size="14" font-weight="bold" letter-spacing="2">SPECS</text>
<text x="1200" y="245" fill="#87cefa" font-size="10">BENCH</text>
<text x="1520" y="245" fill="#d4e9f0" font-size="10" text-anchor="end">caduceus-bench v1.2.1</text>
<text x="1200" y="262" fill="#87cefa" font-size="10">ASSERTIONS</text>
<text x="1520" y="262" fill="#d4e9f0" font-size="10" text-anchor="end">17 (P:3 B:3 T:7 F:4)</text>
<text x="1200" y="279" fill="#87cefa" font-size="10">ATTACKS CLOSED</text>
<text x="1520" y="279" fill="#d4e9f0" font-size="10" text-anchor="end">20 / 20</text>
<text x="1200" y="296" fill="#87cefa" font-size="10">MASS CAP</text>
<text x="1520" y="296" fill="#d4e9f0" font-size="10" text-anchor="end">4.0 kg total comm</text>
<text x="1200" y="313" fill="#87cefa" font-size="10">POWER STEADY</text>
<text x="1520" y="313" fill="#d4e9f0" font-size="10" text-anchor="end">50 W</text>
<text x="1200" y="330" fill="#87cefa" font-size="10">POWER PEAK TX</text>
<text x="1520" y="330" fill="#d4e9f0" font-size="10" text-anchor="end">100 W</text>
<text x="1200" y="347" fill="#87cefa" font-size="10">COMPUTE</text>
<text x="1520" y="347" fill="#d4e9f0" font-size="10" text-anchor="end">Jetson Orin NX 16 GB</text>
<text x="1200" y="364" fill="#87cefa" font-size="10">CRYPTO</text>
<text x="1520" y="364" fill="#d4e9f0" font-size="10" text-anchor="end">libsodium const-time</text>
<text x="1200" y="381" fill="#87cefa" font-size="10">KEY ALG</text>
<text x="1520" y="381" fill="#d4e9f0" font-size="10" text-anchor="end">Ed25519</text>
<text x="1200" y="398" fill="#87cefa" font-size="10">KDF</text>
<text x="1520" y="398" fill="#d4e9f0" font-size="10" text-anchor="end">HKDF RFC 5869</text>
<text x="1200" y="415" fill="#87cefa" font-size="10">HASH</text>
<text x="1520" y="415" fill="#d4e9f0" font-size="10" text-anchor="end">SHA-256</text>
<text x="1200" y="432" fill="#87cefa" font-size="10">WIRE FORMAT</text>
<text x="1520" y="432" fill="#d4e9f0" font-size="10" text-anchor="end">BP7 RFC 9171</text>
<text x="1200" y="449" fill="#87cefa" font-size="10">SECURITY</text>
<text x="1520" y="449" fill="#d4e9f0" font-size="10" text-anchor="end">BPSec RFC 9172</text>
<text x="1200" y="466" fill="#87cefa" font-size="10">TIME ENVELOPE</text>
<text x="1520" y="466" fill="#d4e9f0" font-size="10" text-anchor="end">TAI [1972, 2101)</text>
<text x="1200" y="483" fill="#87cefa" font-size="10">URN CAP</text>
<text x="1520" y="483" fill="#d4e9f0" font-size="10" text-anchor="end">256 bytes NFC/ASCII</text>
<text x="1200" y="500" fill="#87cefa" font-size="10">F4 K DEFAULT</text>
<text x="1520" y="500" fill="#d4e9f0" font-size="10" text-anchor="end">6 confirm/crew/hr</text>
<text x="1200" y="517" fill="#87cefa" font-size="10">LEDGER #</text>
<text x="1520" y="517" fill="#d4e9f0" font-size="10" text-anchor="end">0004 (pending)</text>
<text x="1200" y="534" fill="#87cefa" font-size="10">PRED LEDGER</text>
<text x="1520" y="534" fill="#d4e9f0" font-size="10" text-anchor="end">0003 (VBX-ISPS sub)</text>
<text x="1200" y="551" fill="#87cefa" font-size="10">FAULT TOL</text>
<text x="1520" y="551" fill="#d4e9f0" font-size="10" text-anchor="end">SFT (DFT → v0.3)</text>
<text x="1200" y="568" fill="#87cefa" font-size="10">SUBSTRATE</text>
<text x="1520" y="568" fill="#d4e9f0" font-size="10" text-anchor="end">v0.2 PLAN (20 wk)</text>

<line x1="1200" y1="585" x2="1520" y2="585" stroke="#4ec3e0" stroke-width="0.3"/>

<text x="1200" y="610" fill="#d4e9f0" font-size="14" font-weight="bold" letter-spacing="2">HF →  HW MAP</text>
<text x="1200" y="627" fill="#87cefa" font-size="10">v0.2 floors → substrate module</text>

<text x="1200" y="650" fill="#87cefa" font-size="10">HF-16</text>
<text x="1260" y="650" fill="#d4e9f0" font-size="10">outbound  →  caduceus-attest</text>

<text x="1200" y="667" fill="#87cefa" font-size="10">HF-17</text>
<text x="1260" y="667" fill="#d4e9f0" font-size="10">gate  →  caduceus-gate + Civium</text>

<text x="1200" y="684" fill="#87cefa" font-size="10">HF-18</text>
<text x="1260" y="684" fill="#d4e9f0" font-size="10">drift  →  caduceus-aci  ●</text>

<text x="1200" y="701" fill="#87cefa" font-size="10">HF-19</text>
<text x="1260" y="701" fill="#d4e9f0" font-size="10">URN  →  caduceus-bodyid</text>

<text x="1200" y="718" fill="#87cefa" font-size="10">HF-20</text>
<text x="1260" y="718" fill="#d4e9f0" font-size="10">WCET  →  Mercury kernel  ●</text>

<text x="1200" y="735" fill="#87cefa" font-size="10">HF-21</text>
<text x="1260" y="735" fill="#d4e9f0" font-size="10">nonce  →  caduceus-nonce-set</text>

<text x="1200" y="752" fill="#87cefa" font-size="10">HF-22</text>
<text x="1260" y="752" fill="#d4e9f0" font-size="10">interlock  →  caduceus-interlock</text>

<text x="1200" y="778" fill="#f4a460" font-size="9">●  formal-methods composition pending  ·  CADUCEUS-006</text>
<text x="1200" y="794" fill="#f4a460" font-size="9">v0.3 adds DFT mechanisms (3 named in §0)</text>

<line x1="80" y1="900" x2="1140" y2="900" stroke="#4ec3e0" stroke-width="0.5"/>

<text x="80" y="930" fill="#d4e9f0" font-size="14" font-weight="bold" letter-spacing="2">NOTES</text>

<text x="80" y="952" fill="#d4e9f0" font-size="10">1.  caduceus-bench v1.2.1 cryptographically committed at LEDGER #0004  ·  SHA-256 0fe3b32db5522db65dda8dbc46b1aa9fcc40c418a21cc8abb2df7340a528f874  ·  VERIFIED.</text>

<text x="80" y="970" fill="#d4e9f0" font-size="10">2.  Single-fault-tolerant (SFT) at v0.2.  Dual-fault-tolerance for crewed deployment requires 3 v0.3 substrate mechanisms (dual-peer EPHEMERIS, triple-redundant chain, redundant graph)  ·  VERIFIED.</text>

<text x="80" y="988" fill="#d4e9f0" font-size="10">3.  Two interplanetary-specific attack closures (Attack 10 RTT-stale graph; Attack 27 registry transition at light-time)  ·  basis for CADUCEUS-IP-001 and CADUCEUS-IP-002 PPA filings.</text>

<text x="80" y="1006" fill="#d4e9f0" font-size="10">4.  KeySpace 2024 (Smailes et al., Oxford + armasuisse) is complementary prior art on interplanetary PKI  ·  not anticipating  ·  IP-001 claim scope narrowed accordingly  ·  PLAUSIBLE pending practitioner review.</text>

<text x="80" y="1024" fill="#f4a460" font-size="10">5.  SKETCH ONLY — NOT FOR SUBSTRATE BUILD.  Substrate build is CADUCEUS-005 M0-M8 (20 weeks, ~3.25 FTE).  Phase 6 attack sweep is CADUCEUS-007 (33 attacks across 8 categories).</text>

<rect x="1160" y="900" width="380" height="150" fill="none" stroke="#4ec3e0" stroke-width="0.5"/>

<text x="1180" y="925" fill="#87cefa" font-size="10">DESIGNER</text>
<text x="1180" y="942" fill="#d4e9f0" font-size="11">A. K. WOODEN, SR.</text>

<text x="1360" y="925" fill="#87cefa" font-size="10">AFFILIATION</text>
<text x="1360" y="942" fill="#d4e9f0" font-size="11">VISIONBLOX LLC</text>
<text x="1360" y="956" fill="#87cefa" font-size="9">Zuup Innovation Lab</text>

<text x="1180" y="980" fill="#87cefa" font-size="10">METHODOLOGY</text>
<text x="1180" y="997" fill="#d4e9f0" font-size="11">ZCS-6 (Phase 4)</text>

<text x="1360" y="980" fill="#87cefa" font-size="10">SUBSTRATE</text>
<text x="1360" y="997" fill="#d4e9f0" font-size="11">CADUCEUS-005 plan</text>

<text x="1180" y="1020" fill="#87cefa" font-size="10">DWG #</text>
<text x="1180" y="1037" fill="#d4e9f0" font-size="11">CADUCEUS-001</text>
<text x="1180" y="1048" fill="#87cefa" font-size="9">SKETCH</text>

<text x="1300" y="1020" fill="#87cefa" font-size="10">DATE</text>
<text x="1300" y="1037" fill="#d4e9f0" font-size="11">2026-06-09</text>
<text x="1300" y="1048" fill="#87cefa" font-size="9">UTC</text>

<text x="1420" y="1020" fill="#87cefa" font-size="10">REV</text>
<text x="1420" y="1037" fill="#d4e9f0" font-size="11">A</text>
<text x="1420" y="1048" fill="#87cefa" font-size="9">initial sketch</text>

<defs>
<marker id="arr" viewBox="0 0 10 10" refX="8" refY="5" markerWidth="6" markerHeight="6" orient="auto-start-reverse"><path d="M2 1L8 5L2 9" fill="none" stroke="#4ec3e0" stroke-width="1.5" stroke-linecap="round" stroke-linejoin="round"/></marker>
</defs>

</svg>
